<mxfile host="app.diagrams.net" modified="2023-06-05T22:10:09.041Z" agent="Mozilla/5.0 (X11; Linux x86_64; rv:109.0) Gecko/20100101 Firefox/113.0" version="21.3.7" etag="cn9koqvudpwESVy7-qaN" type="github">
  <diagram name="Page-1" id="q7kJ7SSsUdHmEy6WC_VR">
    <mxGraphModel>
      <root>
        <mxCell id="0" />
        <mxCell id="1" parent="0" />
      </root>
    </mxGraphModel>
  </diagram>
</mxfile>
